REM DIRINDEX 1\2\6,1\2\7,1\2\8,1\2\9,1\3\10,1\3\11,1\4\12,1\4\13,1\4\14,1\5\15,1\5\16,1\5\17
REM DIRNAME cjc020,folder01,folder02,folder03,folder04,folder05,folder06,folder07,folder08,folder09,folder10,folder11,folder12,folder13,folder14,folder15,folder16
TITLE ""
FILE "1900_3_077 sec13_1271_1287.mp3" MP3
  TRACK 01 AUDIO
    TITLE "0:"
    INDEX 01 00:00:00
  TRACK 02 AUDIO
    TITLE "17:cjc020_8521"
    INDEX 01 00:00:13
  TRACK 03 AUDIO
    TITLE "0:"
    INDEX 01 00:01:26
  TRACK 04 AUDIO
    TITLE "16:cjc020_8522"
    INDEX 01 00:01:30
  TRACK 05 AUDIO
    TITLE "0:"
    INDEX 01 00:02:38
  TRACK 06 AUDIO
    TITLE "17:cjc020_8523"
    INDEX 01 00:03:21
  TRACK 07 AUDIO
    TITLE "0:"
    INDEX 01 00:04:25
  TRACK 08 AUDIO
    TITLE "16:cjc020_8524"
    INDEX 01 00:04:31
  TRACK 09 AUDIO
    TITLE "0:"
    INDEX 01 00:05:44
  TRACK 10 AUDIO
    TITLE "17:cjc020_8525"
    INDEX 01 00:06:33
  TRACK 11 AUDIO
    TITLE "0:"
    INDEX 01 00:07:41
  TRACK 12 AUDIO
    TITLE "16:cjc020_8526"
    INDEX 01 00:07:49
  TRACK 13 AUDIO
    TITLE "0:"
    INDEX 01 00:08:64
  TRACK 14 AUDIO
    TITLE "17:cjc020_8527"
    INDEX 01 00:09:49
  TRACK 15 AUDIO
    TITLE "0:"
    INDEX 01 00:11:68
  TRACK 16 AUDIO
    TITLE "16:cjc020_8528"
    INDEX 01 00:11:74
  TRACK 17 AUDIO
    TITLE "0:"
    INDEX 01 00:13:06
  TRACK 18 AUDIO
    TITLE "17:cjc020_8529"
    INDEX 01 00:13:61
  TRACK 19 AUDIO
    TITLE "0:"
    INDEX 01 00:14:74
  TRACK 20 AUDIO
    TITLE "16:cjc020_8530"
    INDEX 01 00:15:05
  TRACK 21 AUDIO
    TITLE "0:"
    INDEX 01 00:16:20
  TRACK 22 AUDIO
    TITLE "17:cjc020_8531"
    INDEX 01 00:17:06
  TRACK 23 AUDIO
    TITLE "0:"
    INDEX 01 00:18:56
  TRACK 24 AUDIO
    TITLE "16:cjc020_8532"
    INDEX 01 00:18:62
  TRACK 25 AUDIO
    TITLE "0:"
    INDEX 01 00:19:71
  TRACK 26 AUDIO
    TITLE "17:cjc020_8533"
    INDEX 01 00:20:55
  TRACK 27 AUDIO
    TITLE "0:"
    INDEX 01 00:21:60
  TRACK 28 AUDIO
    TITLE "16:cjc020_8534"
    INDEX 01 00:21:64
  TRACK 29 AUDIO
    TITLE "0:"
    INDEX 01 00:22:74
  TRACK 30 AUDIO
    TITLE "17:cjc020_8535"
    INDEX 01 00:23:57
  TRACK 31 AUDIO
    TITLE "0:"
    INDEX 01 00:24:71
  TRACK 32 AUDIO
    TITLE "16:cjc020_8536"
    INDEX 01 00:25:11
  TRACK 33 AUDIO
    TITLE "0:"
    INDEX 01 00:26:07
  TRACK 34 AUDIO
    TITLE "17:cjc020_8537"
    INDEX 01 00:26:67
  TRACK 35 AUDIO
    TITLE "0:"
    INDEX 01 00:28:12
  TRACK 36 AUDIO
    TITLE "16:cjc020_8538"
    INDEX 01 00:28:15
  TRACK 37 AUDIO
    TITLE "0:"
    INDEX 01 00:29:34
  TRACK 38 AUDIO
    TITLE "17:cjc020_8539"
    INDEX 01 00:30:18
  TRACK 39 AUDIO
    TITLE "0:"
    INDEX 01 00:31:33
  TRACK 40 AUDIO
    TITLE "16:cjc020_8540"
    INDEX 01 00:31:35
  TRACK 41 AUDIO
    TITLE "0:"
    INDEX 01 00:32:35
  TRACK 42 AUDIO
    TITLE "17:cjc020_8541"
    INDEX 01 00:33:21
  TRACK 43 AUDIO
    TITLE "0:"
    INDEX 01 00:34:55
  TRACK 44 AUDIO
    TITLE "16:cjc020_8542"
    INDEX 01 00:34:69
  TRACK 45 AUDIO
    TITLE "0:"
    INDEX 01 00:35:72
  TRACK 46 AUDIO
    TITLE "17:cjc020_8543"
    INDEX 01 00:36:48
  TRACK 47 AUDIO
    TITLE "0:"
    INDEX 01 00:39:09
  TRACK 48 AUDIO
    TITLE "16:cjc020_8544"
    INDEX 01 00:39:15
  TRACK 49 AUDIO
    TITLE "0:"
    INDEX 01 00:40:34
  TRACK 50 AUDIO
    TITLE "17:cjc020_8545"
    INDEX 01 00:41:16
  TRACK 51 AUDIO
    TITLE "0:"
    INDEX 01 00:42:49
  TRACK 52 AUDIO
    TITLE "16:cjc020_8546"
    INDEX 01 00:42:55
  TRACK 53 AUDIO
    TITLE "0:"
    INDEX 01 00:44:01
  TRACK 54 AUDIO
    TITLE "17:cjc020_8547"
    INDEX 01 00:44:56
  TRACK 55 AUDIO
    TITLE "0:"
    INDEX 01 00:45:71
  TRACK 56 AUDIO
    TITLE "16:cjc020_8548"
    INDEX 01 00:46:02
  TRACK 57 AUDIO
    TITLE "0:"
    INDEX 01 00:47:19
  TRACK 58 AUDIO
    TITLE "17:cjc020_8549"
    INDEX 01 00:48:02
  TRACK 59 AUDIO
    TITLE "0:"
    INDEX 01 00:49:14
  TRACK 60 AUDIO
    TITLE "16:cjc020_8550"
    INDEX 01 00:49:20
  TRACK 61 AUDIO
    TITLE "0:"
    INDEX 01 00:50:42
  TRACK 62 AUDIO
    TITLE "17:cjc020_8551"
    INDEX 01 00:51:22
  TRACK 63 AUDIO
    TITLE "0:"
    INDEX 01 00:52:53
  TRACK 64 AUDIO
    TITLE "16:cjc020_8552"
    INDEX 01 00:52:59
  TRACK 65 AUDIO
    TITLE "0:"
    INDEX 01 00:53:55
  TRACK 66 AUDIO
    TITLE "17:cjc020_8553"
    INDEX 01 00:54:44
  TRACK 67 AUDIO
    TITLE "0:"
    INDEX 01 00:55:61
  TRACK 68 AUDIO
    TITLE "16:cjc020_8554"
    INDEX 01 00:55:65
  TRACK 69 AUDIO
    TITLE "0:"
    INDEX 01 00:57:03
